<svg id="cleanup" xmlns="http://www.w3.org/2000/svg" viewBox="0 0 280 280"><title>multiple-approaches</title><path d="M136.46,215a2.51,2.51,0,0,1-.39-3c1.46-2,3.26-3.75,4.58-5.85A2.42,2.42,0,0,1,143.5,205V142.9H82.44L33.23,171.32a5.88,5.88,0,0,0,0,10.19l57.83,33.39a21.14,21.14,0,0,0,10.57,2.83h41.1A12.3,12.3,0,0,1,136.46,215Z" style="fill:#d0e4f1"/><path d="M82.82,182.2l52.44,32a5.42,5.42,0,0,0,8.24-4.63V142.88a8.54,8.54,0,0,0-4.09-7.29L87.46,103.92a5.74,5.74,0,0,0-8.73,4.91v66.08A8.54,8.54,0,0,0,82.82,182.2Z" style="fill:#d0e4f1"/><path d="M139.21,63.51,83,96.13a8.54,8.54,0,0,0-4.25,7.39v71.39a8.54,8.54,0,0,0,4.09,7.29l56.24,34.28a8.54,8.54,0,0,0,8.89,0l56.24-34.28a8.54,8.54,0,0,0,4.09-7.29V103.52A8.54,8.54,0,0,0,204,96.13L147.78,63.51A8.54,8.54,0,0,0,139.21,63.51Z" style="fill:none;stroke:#3f555a;stroke-linecap:round;stroke-linejoin:round"/><line x1="135.74" y1="133.36" x2="88.05" y2="104.29" style="fill:none;stroke:#3f555a;stroke-linecap:round;stroke-linejoin:round"/><line x1="143.5" y1="206.38" x2="143.5" y2="150.53" style="fill:none;stroke:#3f555a;stroke-linecap:round;stroke-linejoin:round"/><line x1="150.54" y1="133.79" x2="198.23" y2="104.72" style="fill:none;stroke:#3f555a;stroke-linecap:round;stroke-linejoin:round"/><path d="M135.1,83.57c2.69-.13,4-.2,6.62-.38,2.9-.18,4.22-.45,5.41-1.2s1.4-1.67.52-2.19-1.81-.47-3.42-.21a1.57,1.57,0,0,1-1-.14c-.45-.26-.33-.77.26-1.13a2.59,2.59,0,0,1,.93-.33c2.18-.35,3.9-.29,5.41.59,1.88,1.1,1.54,2.79-.83,4.28l0,0c-2.08,1.31-4,1.59-7.64,1.8L137,85l3.93,2.31c.41.24.26.72-.31,1.08a1.93,1.93,0,0,1-1.77.23l-5.58-3.29c-.56-.33-.55-.84.16-1.27A3.31,3.31,0,0,1,135.1,83.57Z" style="fill:#f56f40"/><path d="M146.69,91.33a1.23,1.23,0,0,1,.58-.69,2.11,2.11,0,0,1,1.88-.28.42.42,0,0,1,.22.5,1.55,1.55,0,0,0,.76,2,3.6,3.6,0,0,0,3.57-.39l0,0c1.31-.85,1.23-1.8,0-2.54l-.32-.19c-.37-.22-.22-.69.32-1a3.08,3.08,0,0,1,1.27-.41l5.36-.9-3.23-1.88c-.38-.22-.24-.69.3-1a1.85,1.85,0,0,1,1.69-.24l4.55,2.65c.45.26.4.71-.21,1.11a3.82,3.82,0,0,1-1.69.55l-5.31.84c1.11,1,1.4,2.37-1,4l0,0c-2.44,1.59-5.51,2-7.39.89A2.38,2.38,0,0,1,146.69,91.33Z" style="fill:#f56f40"/><path d="M165.11,100.33l-4.53-2.67c-.46-.27-.38-.79.26-1.21a4.06,4.06,0,0,1,1.6-.59c4.76-.86,7.15-1.28,12-2a2.59,2.59,0,0,1,1.87.18c.51.3.45.86-.16,1.26l-7.33,4.84.85.5c.46.27.38.76-.15,1.11a1.8,1.8,0,0,1-1.76.15l-.85-.5-2,1.3a2.07,2.07,0,0,1-2,.19c-.5-.3-.42-.84.21-1.26Zm1.9-1.26,5.18-3.42c-3.44.54-5.15.84-8.54,1.44Z" style="fill:#f56f40"/><path d="M111.82,99.69,107,96.78c-.53-.32-.51-.87.14-1.26a3.91,3.91,0,0,1,1.69-.49c5.14-.55,7.66-.87,12.64-1.59a2.64,2.64,0,0,1,1.87.17c.48.29.36.83-.28,1.23l-7.57,4.7.78.47c.42.25.29.71-.24,1a1.76,1.76,0,0,1-1.68.15l-.78-.47-2,1.22a2,2,0,0,1-2,.16c-.49-.29-.41-.82.22-1.2Zm1.93-1.19,5.34-3.3c-3.5.52-5.27.76-8.84,1.19Z" style="fill:#f56f40"/><path d="M119.27,106.73c0-.27.15-.56.58-.83a1.93,1.93,0,0,1,1.83-.2.52.52,0,0,1,.27.39,1.65,1.65,0,0,0,.9,1.53c1.37.82,3.87.21,6.36-1.33a5.15,5.15,0,0,1-3.55-.39c-2-1.18-1.66-3,.92-4.66l0,0c2.61-1.67,6-2.12,8.07-.92a1.93,1.93,0,0,1,1.13,2.43c-.3,1-1.36,2.25-4,3.95l0,0c-4.24,2.76-8.57,3.74-11.09,2.24A2.58,2.58,0,0,1,119.27,106.73Zm12.8-2.37,0,0c1.38-.9,1.71-2,.54-2.72s-2.94-.37-4.31.5l0,0c-1.39.89-1.63,2-.49,2.65A4.29,4.29,0,0,0,132.07,104.36Z" style="fill:#f56f40"/><path d="M143.05,108.32l-1.41-.32a1.43,1.43,0,0,1-.36-.14c-.4-.24-.28-.74.25-1.09a2.06,2.06,0,0,1,1.56-.33l2.1.44a3.8,3.8,0,0,1,1,.36l0,0c.49.29.35.85-.3,1.28l-11.08,7.32a2.07,2.07,0,0,1-2,.22c-.46-.28-.36-.84.27-1.25Z" style="fill:#f56f40"/><path d="M138.46,117.86c.19-1.12,1.07-2.29,3.71-4l0,0c4-2.65,8.62-3.9,11.75-2a3.59,3.59,0,0,1,1.88,2.32c.09.34,0,.66-.49,1a2.13,2.13,0,0,1-2.06.13.77.77,0,0,1-.34-.42,2.29,2.29,0,0,0-1.18-1.64c-1.64-1-4.28-.31-6.77,1.22a6.16,6.16,0,0,1,3.9.68c2.12,1.27,2.45,3.38-.18,5.1l0,0a8.63,8.63,0,0,1-8.61.38C138.73,119.74,138.3,118.85,138.46,117.86Zm8.1,1.15,0,0c1.31-.86,1.37-2.06,0-2.87a4.39,4.39,0,0,0-4.48.21l0,0c-1.32.87-1.46,2.05-.1,2.87A4.41,4.41,0,0,0,146.56,119Z" style="fill:#f56f40"/><path d="M150.54,206.38s8.79-65.25,52-87.56" style="fill:none;stroke:#3f555a;stroke-linecap:round;stroke-linejoin:round;stroke-dasharray:6"/><ellipse cx="172.24" cy="148.43" rx="8.48" ry="6.21" transform="translate(-11.2 282.76) rotate(-76.97)" style="fill:#f56f40;stroke:#3f555a;stroke-linecap:round;stroke-linejoin:round;stroke-width:1.07718845527022px"/><path d="M107.88,154.94c.55-.66,1.21-.71,2.46.09a5.45,5.45,0,0,1,2.25,3.38c.2,1.14-.39,1.62-1.35,1a5.65,5.65,0,0,1-1.38-1.34,4.72,4.72,0,0,0-.92-1c-1-.61-2.64,2.09-2.52,2.76,0,.14.19.67.43,1.42l2.42,7.34a4,4,0,0,0,1.29,2.09c1.54,1.19,2.45-1.7,2.77-2.64l.92,1.05c-.75,2.32-1.77,5-5.27,2.74-3.33-2.12-4.35-7.12-5.28-10.17l-3,3.61c-.36.49-1.37.44-2.45-.25a6.05,6.05,0,0,1-2.39-3.55c-.21-1.24.33-1.74,1.41-1a4.52,4.52,0,0,1,1.49,1.75c.7,1.25,1.14.81,1.3.66l2.83-2.68c.16-.15,0-.87-.21-1.4l-1.45-4.31c-.67-1.95-1.39-3.93-1.92-4.22-1.23-.7-2.47,2-2.87,2.71l-.94-.94c.86-1.86,2.19-4.7,5.35-2.69a7.9,7.9,0,0,1,3.25,3.81c.69,1.62,1.08,3,1.56,4.51Z" style="fill:#f56f40;stroke:#f56f40;stroke-linecap:round;stroke-linejoin:round"/><path d="M126.29,160.88l-.13,3.7-7.56-4.8-.1-1c0-.53-.08-.37.23-.51l2.66-1.36a3.5,3.5,0,0,0,2.08-2.47,5.69,5.69,0,0,0,0-1.91,6,6,0,0,0-2.49-4.17,1.92,1.92,0,0,0-1.69-.32c-.3.11-.61.49-.33,1.15.19.33.44.3.65.45a3,3,0,0,1,1.15,1.76c.14.83-.17,1.13-.92.66a4.3,4.3,0,0,1-1.67-2.72c-.4-2.29,1.51-2.47,3.35-1.3a9.67,9.67,0,0,1,4.29,5.84c.2,1.16.12,2-2.45,3.17l-3.57,1.62,5.07,3.22c1,.66.76-.72.84-1.42Z" style="fill:#f56f40;stroke:#f56f40;stroke-linecap:round;stroke-linejoin:round"/></svg>